PathFileType	4	(X/Y/Z)	H:\MAC\Cortex8\Teaching\Biomec1_N_2\Trimmed_walk2.trc
DataRate	CameraRate	NumFrames	NumMarkers	Units	OrigDataRate	OrigDataStartFrame	OrigNumFrames
150.00	150.00	       12	28	mm	150.00	93	       184
Frame#	Time	R.ASIS			L.ASIS			R.PSIS			L.PSIS			L.Iliac.Crest			R.Iliac.Crest			R.GTR			R.Knee			R.HF			R.TT			R.Ankle			R.Heel			R.MT1			R.MT5			L.GTR			L.Knee			L.HF			L.TT			L.Ankle			L.Heel			L.MT1			L.MT5			R.Knee.Medial			R.Ankle.Medial			R.MT2			L.Knee.Medial			L.Ankle.Medial			L.MT2			V_Mid_ASIS			V_Mid_PSIS			V_Pelvis_Origin			V_R.Hip_JC			V_R.Knee_JC_Static			V_R.TT			V_R.Ankle_JC_Static			V_L.Hip_JC			V_Mid_Hip			V_R.MT2_Static			V_R.Knee.Medial			V_R.Ankle.Medial			V_R.TT			V_L.Knee_JC_Static			V_L.TT			V_L.Ankle_JC_Static			V_L.MT2_Static			V_R.Knee_JC			V_R.Ankle_JC			V_L.Knee_JC			V_L.Ankle_JC			V_R.TT_KJC_Static			V_L.TT_KJC_Static			V_R.TT_KJC			V_L.TT_KJC			V_R.MT2			V_L.MT2			
		X1	Y1	Z1	X2	Y2	Z2	X3	Y3	Z3	X4	Y4	Z4	X5	Y5	Z5	X6	Y6	Z6	X7	Y7	Z7	X8	Y8	Z8	X9	Y9	Z9	X10	Y10	Z10	X11	Y11	Z11	X12	Y12	Z12	X13	Y13	Z13	X14	Y14	Z14	X15	Y15	Z15	X16	Y16	Z16	X17	Y17	Z17	X18	Y18	Z18	X19	Y19	Z19	X20	Y20	Z20	X21	Y21	Z21	X22	Y22	Z22	X23	Y23	Z23	X24	Y24	Z24	X25	Y25	Z25	X26	Y26	Z26	X27	Y27	Z27	X28	Y28	Z28	

93	0.613	1228.13843	975.16418	-338.02927	1194.51331	946.71307	-587.00610	1014.75122	968.73145	-374.06027	999.29321	963.56140	-450.70181	1101.74231	1008.88464	-616.58582	1152.76843	1018.17297	-283.50073	1189.37476	897.84442	-254.69078	1306.68921	496.78943	-299.89014	1332.49316	437.07025	-304.54367	1383.15247	441.08563	-365.35437	1367.52197	79.74329	-337.14423	1305.19946	50.82068	-393.71719	1532.60742	60.30595	-388.49094	1498.24268	54.88528	-305.09644	1084.22791	856.58594	-659.33289	946.68414	498.50156	-609.62421	922.08710	438.20633	-612.58459	972.14026	392.97516	-564.81531	679.87323	157.55757	-563.02332	615.91821	172.69954	-505.90341	790.17767	45.71718	-490.15094	760.67957	46.71353	-578.19153	1310.24011	489.05228	-436.91272	1400.95093	97.25390	-424.40939	1524.28186	70.98981	-352.52145	967.85150	470.79202	-474.36816	727.24091	157.27893	-481.70612	781.16199	53.33247	-526.11414																																																																																		
94	0.620	1237.47388	977.40997	-336.21729	1204.29480	947.18768	-584.99359	1024.15198	969.87146	-373.29507	1008.77997	964.11053	-449.95752	1112.30859	1009.52814	-615.03644	1161.57874	1020.64667	-282.43658	1198.33142	899.84149	-253.34450	1314.96301	497.08875	-299.68253	1339.53455	437.19550	-304.59644	1389.60913	440.59558	-365.36627	1368.82458	80.01051	-337.67316	1305.84741	50.97687	-393.98526	1531.13989	56.25946	-389.26379	1499.30530	53.89545	-305.81653	1095.47058	856.43005	-658.01611	960.68365	497.74091	-609.75201	935.10974	438.22757	-613.44983	984.55725	391.69659	-566.46405	687.31506	162.27617	-564.24823	624.49603	180.82336	-507.15744	791.72137	45.82819	-490.42554	762.58917	47.19457	-578.66876	1319.38171	489.38647	-436.10608	1402.10693	96.39832	-425.19876	1525.34692	67.99385	-352.80750	981.79449	469.18921	-475.26477	734.86884	160.52429	-483.42108	783.14996	53.53990	-526.44733																																																																																		
95	0.627	1246.75464	979.60297	-334.35577	1213.98328	947.70673	-582.91846	1033.43823	970.97455	-372.44888	1018.12073	964.70563	-449.10919	1122.57776	1010.32007	-613.68805	1169.64233	1022.70721	-281.69064	1207.31860	901.59644	-251.97781	1321.73315	497.19656	-299.41699	1345.86816	437.08405	-304.71707	1395.70776	440.07709	-365.39481	1369.94177	80.30862	-338.25174	1306.11865	51.73874	-394.24170	1531.88550	53.85707	-390.21237	1500.12622	53.32016	-306.68018	1106.56067	856.23627	-656.52588	975.12018	496.69302	-609.99768	948.64868	438.00281	-614.43085	997.51489	390.11981	-568.13611	695.25970	167.31398	-565.61926	633.46295	189.33284	-508.64896	793.30835	46.49084	-490.79465	764.86993	48.03313	-579.19958	1326.50659	488.58847	-435.58084	1402.95203	95.59357	-426.04742	1526.57568	66.12708	-353.89331	996.49274	467.16183	-476.30890	742.85809	163.94044	-484.86127	785.34235	54.20734	-526.73499																																																																																		
96	0.633	1255.75757	981.90039	-332.66122	1223.41980	948.26587	-580.80688	1042.51611	971.98120	-371.49658	1027.19238	965.30054	-448.16336	1132.58374	1011.10883	-612.11578	1178.61133	1024.65613	-279.87991	1216.15356	903.31946	-250.67714	1327.11963	497.12665	-299.07053	1351.63293	436.81134	-304.68408	1401.28638	439.52298	-365.58585	1370.79272	80.51551	-338.76453	1306.46582	51.94167	-394.35760	1532.60449	52.14439	-391.12491	1500.83472	52.96062	-307.39774	1117.51404	856.00684	-654.89484	989.97388	495.36749	-610.25110	962.45300	437.84393	-615.56335	1010.93835	388.30042	-569.52777	703.70361	172.89583	-566.80334	643.00323	198.09102	-510.14868	795.43988	47.57304	-491.23401	767.46844	49.56710	-579.76776	1331.69470	487.63043	-435.28067	1403.58105	94.95182	-426.74197	1527.58179	64.77904	-354.63489	1011.83087	464.74277	-477.54245	750.81348	167.74097	-485.96390	787.79449	55.53696	-527.24847																																																																																		
97	0.640	1264.58704	983.78656	-330.88242	1232.60547	948.86145	-578.71594	1051.27466	973.05206	-370.36230	1036.18872	965.88916	-447.00824	1142.28064	1012.09442	-610.48157	1187.44556	1026.17102	-278.50360	1224.92590	904.69275	-249.36600	1331.61963	496.80920	-298.63919	1356.91882	436.48135	-304.51596	1406.42212	438.95364	-365.92969	1371.34790	80.64128	-339.18515	1306.70276	52.06271	-394.44534	1533.18237	51.16821	-391.53149	1501.24792	52.66601	-307.73560	1128.27795	855.73950	-653.06750	1005.20770	493.83450	-610.60339	977.12231	437.15897	-616.45538	1024.74951	386.66895	-570.94031	712.38812	178.67780	-567.99078	653.11151	207.24365	-511.52805	797.84729	49.28392	-491.69153	770.42206	51.97140	-580.38367	1335.45898	486.87833	-435.21790	1404.14185	94.52396	-427.22717	1528.34326	63.92805	-354.90924	1027.77502	462.16138	-479.08374	759.21210	171.90030	-486.85913	790.86328	57.45186	-527.69763																																																																																		
98	0.647	1273.37341	985.46539	-329.14999	1241.47888	949.55670	-576.75897	1060.03357	973.90656	-368.90649	1044.78906	966.50543	-445.67700	1151.45117	1013.13379	-608.79749	1195.70264	1027.28137	-277.30447	1233.50098	905.81940	-247.99196	1335.69177	496.28702	-298.15836	1361.79944	436.14786	-304.24341	1411.08557	438.35376	-366.36194	1371.67712	80.67756	-339.53680	1306.82971	52.13569	-394.46091	1533.53931	50.68463	-391.51871	1501.51453	52.39655	-307.87891	1138.52527	855.46613	-651.18146	1020.68231	492.08276	-611.25116	992.26385	436.18448	-617.39740	1038.90149	385.00003	-572.10016	721.51129	185.09253	-569.02472	663.68134	216.83896	-512.80432	800.82452	51.55959	-492.11407	773.81226	55.14100	-580.95807	1338.07129	486.40616	-435.06863	1404.57520	94.23655	-427.48483	1528.86108	63.31542	-354.96936	1044.19421	459.21265	-480.45059	767.77216	176.70218	-487.70071	794.48254	60.08191	-528.22974																																																																																		
99	0.653	1281.85779	987.01917	-327.55627	1250.08142	950.26508	-574.96655	1068.56287	974.84296	-367.43436	1054.94189	966.40717	-444.11877	1160.28955	1014.09833	-607.09399	1204.20874	1028.36365	-275.93356	1241.60583	906.61047	-247.04533	1339.73096	495.79181	-297.61911	1366.30139	435.96036	-303.85660	1415.31396	437.86237	-366.91443	1371.97729	80.62355	-339.84995	1306.89771	52.17767	-394.42807	1533.62085	50.45613	-391.46811	1501.67029	52.18600	-308.01556	1148.59570	855.14923	-649.11206	1036.37219	490.21732	-612.06226	1007.86169	434.94553	-618.29065	1053.48853	383.42154	-572.85388	731.19812	191.90857	-569.92639	674.95349	226.61287	-513.86719	804.50085	54.39141	-492.49008	777.80103	59.12188	-581.43414	1339.93201	486.19672	-434.77444	1404.81726	94.07316	-427.59906	1529.14063	62.85088	-355.02350	1060.67346	456.48190	-481.46704	777.01068	181.83609	-488.31262	798.91473	63.39867	-528.92719																																																																																		
100	0.660	1290.34204	988.35968	-326.14124	1258.37463	951.05121	-573.36597	1076.95923	975.87573	-365.64676	1063.18347	967.06573	-442.46127	1168.46655	1014.91400	-605.53156	1213.67920	1029.11328	-274.60403	1249.77148	907.44031	-245.83339	1343.86316	495.68756	-297.01337	1370.38574	435.97266	-303.42685	1419.11230	437.51331	-367.32059	1371.88965	80.74449	-339.44681	1306.93994	52.19104	-394.39063	1533.60608	50.24261	-391.46332	1501.75928	52.01675	-308.10703	1158.25500	854.82855	-646.83490	1052.36584	488.21765	-613.02039	1023.88959	433.48676	-619.29169	1068.38391	381.96027	-573.33936	741.37018	199.00609	-570.87305	686.89233	236.57753	-514.87396	809.25793	57.75171	-493.13065	782.45752	63.64061	-581.88226	1341.53015	486.14645	-434.18213	1404.99158	93.96394	-427.66541	1529.28809	62.49420	-355.03580	1077.36292	453.68863	-482.60846	786.67468	187.41629	-488.80182	804.47290	66.92928	-529.33600																																																																																		
101	0.667	1298.70642	989.58600	-324.96521	1266.35864	951.84210	-571.98315	1085.13281	977.01605	-363.98773	1071.22278	967.78796	-440.60577	1176.07935	1015.47406	-604.17450	1222.10840	1029.85474	-273.16763	1257.93909	908.25903	-244.77678	1348.08313	496.19302	-296.34561	1373.89221	436.21625	-302.95706	1422.53528	437.27237	-367.42096	1371.94971	80.74990	-339.46323	1306.95349	52.17422	-394.33771	1533.69617	50.11518	-391.49670	1501.79309	51.88093	-308.16025	1167.28467	854.47858	-644.44122	1068.39941	486.25812	-613.87628	1040.06982	431.96899	-620.29962	1083.59998	380.67224	-573.63031	752.09351	206.34857	-571.74091	699.57898	246.64507	-515.75616	814.66223	61.81868	-493.81174	787.84882	68.75766	-582.29999	1343.25745	486.40826	-433.48065	1405.13635	93.93351	-427.71216	1529.38489	62.20317	-355.02469	1094.18982	451.09943	-483.69165	797.10706	193.31168	-489.06860	811.24475	70.84264	-530.37311																																																																																		
102	0.673	1306.94812	990.70386	-324.01886	1274.00452	952.59772	-570.86285	1093.31653	978.31647	-362.14087	1079.04272	968.57013	-438.71442	1183.25745	1015.86096	-603.00513	1230.88782	1030.45520	-271.99866	1265.91455	909.10748	-243.70071	1352.40039	497.07541	-295.71451	1376.90320	436.49298	-302.37512	1425.59534	437.05133	-367.17709	1371.95642	80.77374	-339.47491	1306.94727	52.15406	-394.30243	1533.76282	50.02250	-391.53680	1501.81287	51.78816	-308.20660	1175.92505	854.08588	-641.92773	1084.56946	484.43903	-614.71881	1056.53345	430.52029	-621.15955	1098.98804	379.58752	-573.72180	763.40063	213.92410	-572.64825	713.24963	256.59921	-516.59497	820.98737	66.34530	-494.69293	793.13733	73.55251	-582.16986	1345.31384	487.00336	-432.87210	1405.28674	93.87816	-427.68164	1529.37598	62.10165	-355.06488	1111.00598	448.84534	-484.43027	807.98303	199.38744	-489.39331	819.51617	75.67449	-531.28198																																																																																		
103	0.680	1315.17041	991.56989	-323.26221	1281.39709	953.40961	-569.96735	1101.26917	979.78961	-360.39865	1086.68665	969.42810	-436.90158	1190.03979	1016.10980	-601.83893	1239.41699	1031.18762	-271.06879	1274.10437	910.02136	-242.69447	1356.66870	497.98361	-295.16705	1379.43481	436.73639	-301.82126	1428.41711	436.74527	-366.58347	1371.88232	80.89169	-339.46759	1306.91956	52.12707	-394.26883	1533.74854	49.97829	-391.58405	1501.80359	51.71737	-308.25430	1183.97192	853.70300	-639.24707	1100.84082	482.82843	-615.51740	1072.94751	429.28745	-622.15228	1114.67810	378.82431	-573.58679	775.62457	221.14510	-572.44220	727.45892	266.48010	-516.79852	828.08234	71.34386	-495.63763	799.95984	78.97063	-582.59357	1347.81006	487.79520	-432.28735	1405.39233	93.86516	-427.65649	1529.37109	61.92628	-355.07336	1128.10767	447.06116	-485.26657	819.64819	205.54608	-489.60233	828.63690	79.70090	-532.73102																																																																																		
104	0.687	1323.26477	992.35712	-322.77905	1288.48706	954.22778	-569.29089	1109.05603	981.38483	-358.85211	1094.16553	970.42566	-435.04208	1196.29553	1016.16559	-600.93036	1249.84753	1032.32056	-270.19101	1282.10645	911.00964	-241.71715	1360.67126	498.74191	-294.59824	1381.60095	436.91782	-301.12894	1430.98218	436.47424	-365.77780	1371.88281	80.87669	-339.40164	1306.89355	52.09350	-394.21542	1533.70276	49.98047	-391.59622	1501.78027	51.66562	-308.28326	1191.68018	853.27039	-636.35327	1117.27063	481.55887	-616.25183	1089.52673	428.28458	-622.93982	1130.45386	378.34918	-573.33789	787.87256	228.32619	-572.68365	742.13226	275.53632	-516.76208	836.59570	76.92129	-496.88785	807.68494	84.37928	-583.31769	1350.73706	488.72931	-431.68369	1405.47498	93.88947	-427.60327	1529.32458	61.80155	-355.06302	1144.95825	445.94659	-485.71701	831.83899	211.72197	-489.66885	837.34167	83.23138	-534.64502																																																																																		
